<mxfile host="app.diagrams.net" modified="2021-01-11T07:38:54.465Z" agent="5.0 (Windows)" etag="QJAZnJSfP8G7_uUoEw3Q" version="14.1.8" type="github">
  <diagram id="dWZGJ-d_4HyBxlwed8cT" name="Page-1">
    <mxGraphModel dx="1038" dy="547" grid="1" gridSize="10" guides="1" tooltips="1" connect="1" arrows="1" fold="1" page="1" pageScale="1" pageWidth="1169" pageHeight="827" math="0" shadow="0">
      <root>
        <mxCell id="0" />
        <mxCell id="1" parent="0" />
        <mxCell id="_AZ3pP7ZgK6MQPn-EBOW-1" value="Transfers from State Departments" style="swimlane;html=1;childLayout=stackLayout;resizeParent=1;resizeParentMax=0;horizontal=1;startSize=20;horizontalStack=0;" vertex="1" parent="1">
          <mxGeometry x="230" y="20" width="730" height="740" as="geometry" />
        </mxCell>
        <mxCell id="_AZ3pP7ZgK6MQPn-EBOW-2" value="CEO" style="swimlane;html=1;startSize=20;horizontal=0;" vertex="1" parent="_AZ3pP7ZgK6MQPn-EBOW-1">
          <mxGeometry y="20" width="730" height="220" as="geometry" />
        </mxCell>
        <mxCell id="_AZ3pP7ZgK6MQPn-EBOW-5" value="Start" style="rounded=1;whiteSpace=wrap;html=1;" vertex="1" parent="_AZ3pP7ZgK6MQPn-EBOW-2">
          <mxGeometry x="310" y="20" width="95" height="50" as="geometry" />
        </mxCell>
        <mxCell id="_AZ3pP7ZgK6MQPn-EBOW-8" value="Receive Budgetary Allocation from the Ministry" style="rounded=0;whiteSpace=wrap;html=1;" vertex="1" parent="_AZ3pP7ZgK6MQPn-EBOW-2">
          <mxGeometry x="297.5" y="150" width="120" height="60" as="geometry" />
        </mxCell>
        <mxCell id="_AZ3pP7ZgK6MQPn-EBOW-7" value="" style="edgeStyle=orthogonalEdgeStyle;rounded=0;orthogonalLoop=1;jettySize=auto;html=1;" edge="1" parent="_AZ3pP7ZgK6MQPn-EBOW-2" source="_AZ3pP7ZgK6MQPn-EBOW-5" target="_AZ3pP7ZgK6MQPn-EBOW-8">
          <mxGeometry relative="1" as="geometry">
            <mxPoint x="357.5" y="135" as="targetPoint" />
          </mxGeometry>
        </mxCell>
        <mxCell id="_AZ3pP7ZgK6MQPn-EBOW-3" value="Manager Finance" style="swimlane;html=1;startSize=20;horizontal=0;" vertex="1" parent="_AZ3pP7ZgK6MQPn-EBOW-1">
          <mxGeometry y="240" width="730" height="320" as="geometry" />
        </mxCell>
        <mxCell id="_AZ3pP7ZgK6MQPn-EBOW-9" value="Receive an AIE from the State Department for the Monthly/Quarterly/semi-annually for Recurrent &amp;amp; Development grants disbursement " style="whiteSpace=wrap;html=1;rounded=0;" vertex="1" parent="_AZ3pP7ZgK6MQPn-EBOW-3">
          <mxGeometry x="252" y="50" width="210" height="80" as="geometry" />
        </mxCell>
        <mxCell id="_AZ3pP7ZgK6MQPn-EBOW-11" value="Confirmation of Receipt of the disbursement grants in the Account" style="whiteSpace=wrap;html=1;rounded=0;" vertex="1" parent="_AZ3pP7ZgK6MQPn-EBOW-3">
          <mxGeometry x="287" y="200" width="140" height="60" as="geometry" />
        </mxCell>
        <mxCell id="_AZ3pP7ZgK6MQPn-EBOW-12" value="" style="edgeStyle=orthogonalEdgeStyle;rounded=0;orthogonalLoop=1;jettySize=auto;html=1;" edge="1" parent="_AZ3pP7ZgK6MQPn-EBOW-3" source="_AZ3pP7ZgK6MQPn-EBOW-9" target="_AZ3pP7ZgK6MQPn-EBOW-11">
          <mxGeometry relative="1" as="geometry" />
        </mxCell>
        <mxCell id="_AZ3pP7ZgK6MQPn-EBOW-4" value="Cash Office- Accountant" style="swimlane;html=1;startSize=20;horizontal=0;" vertex="1" parent="_AZ3pP7ZgK6MQPn-EBOW-1">
          <mxGeometry y="560" width="730" height="180" as="geometry" />
        </mxCell>
        <mxCell id="_AZ3pP7ZgK6MQPn-EBOW-10" value="" style="edgeStyle=orthogonalEdgeStyle;rounded=0;orthogonalLoop=1;jettySize=auto;html=1;" edge="1" parent="_AZ3pP7ZgK6MQPn-EBOW-1" source="_AZ3pP7ZgK6MQPn-EBOW-8" target="_AZ3pP7ZgK6MQPn-EBOW-9">
          <mxGeometry relative="1" as="geometry" />
        </mxCell>
      </root>
    </mxGraphModel>
  </diagram>
</mxfile>
